<?xml version="1.0" standalone="no"?>
<!DOCTYPE svg PUBLIC "-//W3C//DTD SVG 1.1//EN" "http://www.w3.org/Graphics/SVG/1.1/DTD/svg11.dtd">
<svg width="1280px" height="800px" version="1.1" xmlns="http://www.w3.org/2000/svg" xmlns:xlink="http://www.w3.org/1999/xlink" xml:space="preserve" style="fill-rule:evenodd;clip-rule:evenodd;stroke-linejoin:round;stroke-miterlimit:1.41421;">
    <g>
        <g id="Layer1">
            <g>
                <path d="M249.869,125.616L249.869,145.616L93.9306,145.616L93.9306,256.282L206.693,256.282L206.693,276.282L93.9306,276.282L93.9306,435.171L40.1904,435.171L40.1904,125.616L249.869,125.616Z" style="fill:black;fill-rule:nonzero;"/>
                <g>
                    <path d="M549.106,430.105L616.625,350.377L643.495,350.377L561.507,447.043L667.38,588.821L609.506,588.821L530.962,483.488L441.625,588.821L414.755,588.821L518.101,466.821L466.174,397.534L383.76,289.616L346.096,289.616L346.096,435.171L292.356,435.171L292.356,125.616L403.052,125.616C422.343,125.616 439.223,127.616 453.692,131.616C468.16,135.616 480.217,141.208 489.863,148.394C499.509,155.579 506.781,164.097 511.681,173.949C516.58,183.801 519.03,194.579 519.03,206.282C519.03,215.912 517.154,224.912 513.403,233.282C509.652,241.653 504.332,249.208 497.442,255.949C490.552,262.69 482.284,268.542 472.639,273.505C462.993,278.468 452.352,282.282 440.716,284.949L549.106,430.105ZM346.096,274.06L377.1,274.06C389.196,274.06 400.334,272.505 410.516,269.394C420.697,266.282 429.539,261.875 437.041,256.171C444.544,250.468 450.4,243.542 454.61,235.394C458.821,227.245 460.926,218.134 460.926,208.06C460.926,198.875 459.242,190.394 455.873,182.616C452.505,174.838 447.835,168.171 441.864,162.616C435.893,157.06 428.774,152.727 420.506,149.616C412.238,146.505 403.205,144.949 393.406,144.949L346.096,144.949L346.096,274.06Z" style="fill:black;"/>
                </g>
                <g>
                    <path d="M761.685,423.838C768.422,423.838 774.623,422.838 780.288,420.838C785.953,418.838 790.814,416.208 794.871,412.949C798.928,409.69 802.105,405.912 804.402,401.616C806.698,397.319 807.847,392.949 807.847,388.505C807.847,381.245 805.971,374.912 802.22,369.505C798.469,364.097 793.493,359.208 787.292,354.838C781.091,350.468 774.01,346.505 766.049,342.949C758.087,339.394 750.011,335.727 741.82,331.949C733.629,328.171 725.552,324.097 717.591,319.727C709.629,315.356 702.548,310.319 696.347,304.616C690.146,298.912 685.17,292.319 681.419,284.838C677.668,277.356 675.793,268.505 675.793,258.282C675.793,248.653 677.898,239.764 682.108,231.616C686.319,223.468 692.137,216.431 699.562,210.505C706.988,204.579 715.868,199.949 726.203,196.616C736.538,193.282 747.829,191.616 760.078,191.616C768.192,191.616 775.848,192.171 783.044,193.282C790.24,194.394 797.244,196.542 804.057,199.727C810.871,202.912 817.684,207.394 824.497,213.171C831.31,218.949 838.391,226.505 845.74,235.838L827.827,251.394C818.488,236.579 808.038,225.542 796.479,218.282C784.919,211.023 772.556,207.394 759.389,207.394C752.499,207.394 746.145,208.245 740.327,209.949C734.509,211.653 729.533,213.949 725.399,216.838C721.265,219.727 718.05,223.097 715.753,226.949C713.457,230.801 712.309,234.875 712.309,239.171C712.309,246.282 714.375,252.505 718.509,257.838C722.643,263.171 728.078,267.986 734.815,272.282C741.552,276.579 749.207,280.542 757.781,284.171C766.355,287.801 775.159,291.505 784.192,295.282C793.225,299.06 802.029,303.097 810.603,307.394C819.177,311.69 826.832,316.69 833.569,322.394C840.305,328.097 845.74,334.69 849.874,342.171C854.008,349.653 856.075,358.356 856.075,368.282C856.075,378.356 854.123,387.801 850.219,396.616C846.315,405.431 840.458,413.06 832.65,419.505C824.842,425.949 815.004,431.023 803.139,434.727C791.273,438.431 777.455,440.282 761.685,440.282C754.489,440.282 747.102,439.727 739.523,438.616C731.944,437.505 724.289,435.356 716.557,432.171C708.825,428.986 701.093,424.505 693.362,418.727C685.63,412.949 678.089,405.394 670.74,396.06L690.721,378.505C696.692,386.653 702.433,393.579 707.945,399.282C713.457,404.986 719.007,409.653 724.595,413.282C730.184,416.912 736.002,419.579 742.049,421.282C748.097,422.986 754.642,423.838 761.685,423.838Z" style="fill:black;fill-rule:nonzero;"/>
                </g>
                <g>
                    <path d="M945.369,240.06C960.221,223.912 975.684,211.801 991.76,203.727C1007.84,195.653 1024.22,191.616 1040.91,191.616C1049.48,191.616 1057.56,193.505 1065.14,197.282C1072.72,201.06 1079.3,206.208 1084.89,212.727C1090.48,219.245 1094.88,226.912 1098.09,235.727C1101.31,244.542 1102.92,253.912 1102.92,263.838L1102.92,435.171L1054,435.171L1054,271.838C1054,256.134 1050.32,244.208 1042.97,236.06C1035.63,227.912 1026.13,223.838 1014.5,223.838C1009.29,223.838 1003.78,224.653 997.961,226.282C992.143,227.912 986.249,230.245 980.277,233.282C974.306,236.319 968.373,239.949 962.479,244.171C956.584,248.394 950.881,253.097 945.369,258.282L945.369,435.171L896.452,435.171L896.452,87.838L945.369,69.0999L945.369,240.06Z" style="fill:black;fill-rule:nonzero;"/>
                </g>
            </g>
        </g>
    </g>
</svg>
